<svg version="1.2" xmlns="http://www.w3.org/2000/svg" viewBox="0 0 632 821" width="632" height="821">
	<title>avatar-svg</title>
	<defs>
		<clipPath clipPathUnits="userSpaceOnUse" id="cp1">
			<path d="m0 0h632v821h-632z"/>
		</clipPath>
	</defs>
	<style>
		.s0 { fill: #fdd2b2 } 
		.s1 { fill: #f3ab98 } 
		.s2 { fill: none;stroke: #592d3d;stroke-miterlimit:10;stroke-width: 12 } 
		.s3 { fill: none;stroke: #592d3d;stroke-linecap: square;stroke-miterlimit:10;stroke-width: 12 } 
		.s4 { fill: #592d3d } 
		.s5 { fill: #d67070 } 
		.s6 { fill: #c46565 } 
		.s7 { fill: #000000;stroke: #ffffff;stroke-width: 16 } 
		.s8 { fill: #000000;stroke: #ffffff;stroke-width: 24 } 
		.s9 { fill: #61dafb } 
		.s10 { fill: #f28195 } 
		.s11 { fill: none;stroke: #592d3d;stroke-miterlimit:10;stroke-width: 6 } 
		.s12 { fill: #ffffff } 
		.s13 { opacity: .1;fill: #000000 } 
		.s14 { opacity: .9;fill: #592d3d } 
		.s15 { opacity: .3;fill: #ffffff } 
		.s16 { fill: none;stroke: #592d3d;stroke-miterlimit:10;stroke-width: 20 } 
	</style>
	<g id="Clip-Path" clip-path="url(#cp1)">
		<g>
			<path class="s0" d="m426 589.7c90.8 0 72 114.3 72.9 241.3h-72.9z"/>
			<path class="s1" d="m448.7 662.9l-22.7 38.1 11.4 130h31.7c0.8-180.3-20.4-168.1-20.4-168.1z"/>
			<path class="s0" d="m49.3 331c0-147.3 119.4-266.8 266.7-266.8 147.3 0.1 266.8 119.5 266.8 266.8 0 19.8-2.2 39.5-6.6 58.8-4.3 19.3-10.8 38.1-19.3 55.9-8.5 17.9-19 34.8-31.2 50.3-12.3 15.5-26.2 29.7-41.6 42.1q-2.1 1.7-4.1 3.3-2.1 1.6-4.2 3.2-2.2 1.6-4.3 3.2-2.2 1.5-4.3 3c-60.2 38.2-136.2 38.2-204.8 32.1-6.7-1-13.3-2.3-19.9-3.7-26.3-5.8-51.8-14.8-75.4-27.8q-2.2-1.4-4.3-2.8-2.2-1.4-4.3-2.8-2.1-1.5-4.2-3-2.1-1.5-4.1-3-2.1-1.6-4.1-3.2-2-1.7-4-3.3-1.9-1.7-3.9-3.4-1.9-1.7-3.8-3.5-1.8-1.7-3.5-3.4-1.8-1.7-3.5-3.4-1.7-1.7-3.4-3.5-1.7-1.7-3.4-3.5c-11.3-12.2-21.5-25.4-30.4-39.5-8.9-14.1-16.4-29-22.5-44.5-6.1-15.5-10.7-31.6-13.8-47.9-3.1-16.4-4.7-33-4.6-49.7z"/>
			<path class="s1" d="m85.6 465.5q1.1 1.8 2.1 3.6 0.7 1 1.4 2.1 0.9 1.6 2 3.2c0.4 0.7 1 1.5 1.4 2.2q1 1.5 2 3c0.5 0.8 1 1.5 1.6 2.3 0.6 1 1.3 1.9 2 2.9q0.8 1.1 1.6 2.3c0.6 0.8 1.4 1.8 2 2.8 0.7 0.9 1.2 1.5 1.8 2.2 0.5 0.8 1.3 1.8 2 2.7 0.7 0.9 1.2 1.6 1.8 2.3 0.6 0.8 1.4 1.8 2.1 2.6 0.7 0.9 1.3 1.5 1.9 2.3 0.6 0.7 1.4 1.7 2.2 2.5 0.7 0.9 1.2 1.5 1.9 2.2l2.2 2.5q1 1.1 2 2.2 1.3 1.4 2.6 2.8l1.2 1.3q1.9 2 3.9 4l0.3 0.2q1.9 2 3.9 3.8l1.6 1.5q1.4 1.4 2.8 2.7l1.2 1.1c1 0.9 2.1 1.8 3.1 2.7q4.9 4.3 10 8.2 2.1 1.6 4.1 3.1 2.1 1.5 4.2 3 2.1 1.4 4.3 2.8 2.2 1.4 4.3 2.8c23.6 13 49 22 75.4 27.8q9.9 2.1 19.9 3.7c42.1 3.7 87 5.1 129.3-3.1-67.3-19.8-390.1-136.1-186.9-491.3q-4.1 1.9-8.1 3.9l-0.5 0.3q-1.9 0.9-3.7 1.8l-1 0.6q-5.6 3-11.1 6.2l-0.9 0.5q-1.8 1.1-3.5 2.1l-0.9 0.6q-1.3 0.8-2.6 1.6-1.4 0.9-2.7 1.8-1.3 0.8-2.6 1.7-1.3 0.9-2.6 1.8l-1.1 0.7q-1.6 1.2-3.2 2.3l-0.7 0.5q-0.8 0.6-1.6 1.2-0.8 0.6-1.6 1.2-0.8 0.6-1.6 1.2-0.8 0.6-1.6 1.2l-0.7 0.5q-1.5 1.2-3 2.4l-1.1 1q-1.5 1.2-3 2.4-3.2 2.6-6.3 5.4l-1.1 1-2.7 2.4-1.3 1.2q-1.1 1-2.1 2-1.1 1-2.1 2-1.1 1.1-2.1 2.1-1 1-2.1 2.1l-1.4 1.4q-1.1 1.2-2.3 2.5-0.7 0.7-1.4 1.4-0.5 0.6-1 1.1-0.5 0.6-1 1.1-0.5 0.6-1 1.2-0.5 0.5-1 1.1c-0.5 0.5-1 1-1.4 1.5q-1.1 1.2-2.1 2.5l-1.5 1.8q-1.1 1.2-2 2.4-0.8 1-1.6 2-1.6 2-3.2 4-0.8 1.1-1.6 2.1c-0.5 0.7-1.2 1.6-1.8 2.4-0.6 0.8-1.1 1.5-1.6 2.2-0.5 0.7-1.1 1.6-1.7 2.3q-0.3 0.5-0.7 1-0.3 0.5-0.7 1-0.3 0.6-0.7 1.1-0.3 0.5-0.7 1-0.7 1.1-1.5 2.2c-0.4 0.7-1.1 1.7-1.6 2.5l-1.5 2.3-1.7 2.7q-0.6 1.1-1.2 2.1-1.4 2.2-2.7 4.4l-1.2 2.2q-0.8 1.4-1.6 2.8-0.6 1.1-1.2 2.2-0.9 1.8-1.9 3.6l-1.2 2.3q-0.9 2-1.9 3.9-0.5 1-1 2.1c-0.5 1.1-1 2.2-1.5 3.3q-0.5 0.9-0.9 2-0.3 0.6-0.6 1.2-0.2 0.6-0.5 1.3-0.3 0.6-0.6 1.2-0.2 0.6-0.5 1.3-0.3 0.7-0.6 1.5-0.8 1.9-1.6 3.9-0.4 1-0.8 2-0.8 1.8-1.4 3.8-0.4 0.8-0.7 1.6-0.2 0.7-0.4 1.3-0.3 0.7-0.5 1.3-0.2 0.7-0.5 1.3-0.2 0.7-0.4 1.4l-0.6 1.7q-0.6 2-1.3 4l-0.6 1.9q-0.7 2.3-1.3 4.6-0.2 0.5-0.3 1-0.8 2.8-1.5 5.5-0.3 0.9-0.5 1.8-0.5 2.1-1 4.2l-0.4 1.8q-0.6 2.8-1.2 5.7l-0.2 0.7q-0.5 2.6-1 5.1-0.1 0.9-0.3 1.8-0.4 2.3-0.7 4.5-0.2 0.8-0.3 1.6-0.4 2.9-0.8 5.8l-0.2 1.3q-0.3 2.4-0.5 4.8-0.1 0.9-0.2 1.9-0.2 2.5-0.5 5c0 0.4 0 0.7 0 1q-0.3 3-0.4 6.1c0 0.5 0 1-0.1 1.6q0 0.5 0 1.1-0.1 0.6-0.1 1.2 0 0.6 0 1.2 0 0.6-0.1 1.2v1.7c0 2.1-0.1 4.2-0.1 6.2v0.1c0 2.2 0 4.4 0.1 6.6 0 0.8 0.1 1.6 0.1 2.3q0.1 2.2 0.2 4.4c0 0.9 0.1 1.8 0.1 2.7q0.1 2 0.3 4c0.1 1 0.1 1.9 0.2 2.8q0.2 1.9 0.4 3.8c0.1 1 0.2 1.9 0.3 2.9q0.2 1.8 0.4 3.6 0.2 1.5 0.4 3 0.2 1.8 0.5 3.5 0.2 1.5 0.5 3 0.2 1.8 0.5 3.5 0.3 1.5 0.6 3 0.3 1.7 0.6 3.5c0.2 1.1 0.4 2 0.6 3q0.4 1.7 0.8 3.4c0.2 1.1 0.4 2 0.7 2.9q0.4 1.7 0.8 3.4c0.3 1.1 0.5 1.9 0.7 2.9q0.5 1.6 0.9 3.3c0.3 1 0.6 1.9 0.8 2.9q0.5 1.6 1 3.3c0.4 1.1 0.6 1.9 0.9 2.8q0.3 0.8 0.5 1.5 0.3 0.8 0.5 1.6 0.3 0.7 0.5 1.5 0.3 0.7 0.5 1.5 0.6 1.6 1.2 3.3 0.5 1.3 1 2.7l1.2 3.3q0.5 1.3 1 2.7 0.7 1.6 1.4 3.2 0.5 1.3 1 2.6c0.5 1.1 1 2.2 1.5 3.4q0.5 1.2 1.1 2.4 0.8 1.8 1.6 3.5l1.1 2.3q0.9 1.9 1.8 3.7 0.5 1 1 1.9 2.9 5.6 6 11.1c0.3 0.5 0.6 1.1 1 1.7z"/>
			<path fill-rule="evenodd" class="s2" d="m49.3 331c0-147.3 119.4-266.8 266.7-266.8 147.3 0.1 266.8 119.5 266.8 266.8 0 19.8-2.2 39.5-6.6 58.8-4.3 19.3-10.8 38.1-19.3 55.9-8.5 17.9-19 34.8-31.2 50.3-12.3 15.5-26.2 29.7-41.6 42.1q-2.1 1.7-4.1 3.3-2.1 1.6-4.2 3.2-2.2 1.6-4.3 3.2-2.2 1.5-4.3 3c-60.2 38.2-136.2 38.2-204.8 32.1-6.7-1-13.3-2.3-19.9-3.7-26.3-5.8-51.8-14.8-75.4-27.8q-2.2-1.4-4.3-2.8-2.2-1.4-4.3-2.8-2.1-1.5-4.2-3-2.1-1.5-4.1-3-2.1-1.6-4.1-3.2-2-1.7-4-3.3-1.9-1.7-3.9-3.4-1.9-1.7-3.8-3.5-1.8-1.7-3.5-3.4-1.8-1.7-3.5-3.4-1.7-1.7-3.4-3.5-1.7-1.7-3.4-3.5c-11.3-12.2-21.5-25.4-30.4-39.5-8.9-14.1-16.4-29-22.5-44.5-6.1-15.5-10.7-31.6-13.8-47.9-3.1-16.4-4.7-33-4.6-49.7z"/>
			<path class="s0" d="m202.1 589.7c-90.7 0-72 114.3-72.8 241.3h72.8z"/>
			<path class="s1" d="m183.2 662.9l22.8 38.1-11.4 130h-31.7c-0.8-180.3 20.3-168.1 20.3-168.1z"/>
			<path class="s0" d="m435.5 901h-239c-1.7 0-3.4-0.3-5-1-1.7-0.7-3.1-1.7-4.4-2.9-1.2-1.2-2.2-2.7-2.8-4.3-0.7-1.6-1-3.3-1-5.1v-284.7c0-1.7 0.3-3.5 1-5.1 0.6-1.6 1.6-3.1 2.8-4.3 1.3-1.2 2.7-2.2 4.4-2.9 1.6-0.6 3.3-1 5-1h233.3c13 0 19 7.7 19 19.9v278.1q0 2-0.6 3.8-0.6 1.9-1.7 3.6-1.1 1.6-2.6 2.9-1.5 1.2-3.3 2-0.6 0.2-1.3 0.4-0.6 0.2-1.2 0.3-0.7 0.2-1.3 0.2-0.7 0.1-1.3 0.1z"/>
			<path class="s1" d="m445.1 597.6q-0.4-0.4-0.8-0.9-0.3-0.5-0.6-1-0.3-0.5-0.6-1-0.3-0.5-0.6-1.1-0.9-0.7-1.8-1.3-1-0.5-2.1-1-1-0.4-2.1-0.7-1.1-0.3-2.2-0.5-0.6-0.1-1.2-0.1-0.5-0.1-1.1-0.1-0.5-0.1-1.1-0.1-0.6 0-1.1 0h-233.3c-1.7 0-3.4 0.3-5 1-1.6 0.6-3.1 1.6-4.3 2.8-1.3 1.3-2.2 2.7-2.9 4.3-0.7 1.6-1 3.4-1 5.1 29 10.4 83.3 16.2 132.7 16.2 63.1 0 104.4-9.3 129.1-21.6z"/>
			<path fill-rule="evenodd" class="s3" d="m202.1 589.7c-90.7 0-72 114.3-72.8 241.3h50m269.4 0h50.2c-0.9-127 17.9-241.3-72.9-241.3z"/>
			<path fill-rule="evenodd" class="s2" d="m196.5 589.8l233.3-0.1"/>
			<path class="s1" d="m196.5 901h116.6c-109.1 0-100.9-231.2-129.8-231.2v217.9q0 1.3 0.2 2.6 0.3 1.3 0.8 2.5 0.5 1.2 1.2 2.3 0.7 1.1 1.6 2 1 0.9 2 1.7 1.1 0.7 2.3 1.2 1.3 0.5 2.5 0.7 1.3 0.3 2.6 0.3z"/>
			<path class="s4" d="m177.3 691.9c-0.2-3.7-0.2-7.4 0-11 0.2-3.7 0.5-7.4 0.9-11q0.3-2.8 0.6-5.6c0.3-1.8 0.5-3.6 0.9-5.5q0.2-1.4 0.6-2.8 0.4-1.4 0.8-2.8 0.5-1.4 1-2.7 0.5-1.4 1.2-2.7 0.6 1.3 1.1 2.7 0.6 1.3 1 2.7 0.5 1.4 0.8 2.8 0.4 1.4 0.6 2.8c0.4 1.9 0.7 3.7 0.9 5.5q0.3 2.8 0.7 5.6 0.5 5.5 0.8 11c0.2 3.6 0.3 7.3 0.1 11z"/>
			<path fill-rule="evenodd" class="s2" d="m448.7 701v8c0.3 34 0.3 69 0 102.8v75.9c0 1.7-0.3 3.5-1 5.1-0.6 1.6-1.6 3.1-2.8 4.3-1.3 1.2-2.7 2.2-4.3 2.9-1.7 0.7-3.4 1-5.1 1h-239c-1.7 0-3.4-0.3-5-1-1.7-0.7-3.1-1.7-4.4-2.9-1.2-1.2-2.2-2.7-2.8-4.3-0.7-1.6-1-3.3-1-5.1v-65.8c-0.3-34.9-0.3-69.9 0-105.3v-24.7"/>
			<path class="s4" d="m442.7 701c-0.1-4.2-0.1-8.4 0.1-12.5 0.2-4.2 0.5-8.4 0.9-12.6q0.2-3.1 0.6-6.2c0.2-2.1 0.5-4.2 0.9-6.3q0.2-1.6 0.6-3.2 0.3-1.6 0.8-3.2 0.4-1.5 1-3.1 0.5-1.5 1.1-3 0.7 1.5 1.2 3 0.6 1.6 1 3.1 0.5 1.6 0.8 3.2 0.4 1.6 0.6 3.2c0.4 2.1 0.6 4.2 0.9 6.3q0.3 3.1 0.6 6.2c0.4 4.2 0.7 8.4 0.9 12.6 0.1 4.1 0.2 8.3 0 12.5zm-56-27.5c0.2-9.5 12.2-13.5 18.2-7.5q0.4 0.4 0.7 0.8 0.3 0.4 0.6 0.8 0.3 0.5 0.5 0.9 0.3 0.5 0.5 1 0.4 0.9 0.5 2 0.2 1 0.2 2 0 1.1-0.2 2.1-0.2 1-0.6 2-0.6 1.4-1.6 2.6-1.1 1.2-2.4 2.1-1.3 0.9-2.8 1.3-1.5 0.5-3.1 0.4-1 0-2.1-0.2-1-0.2-1.9-0.6-1-0.4-1.9-1-0.8-0.6-1.6-1.3-0.7-0.8-1.3-1.6-0.5-0.9-0.9-1.8-0.4-1-0.6-2-0.2-1-0.2-2zm-162.6-0.3c-0.2-8.2 8.8-12.2 14.8-9.2 8 3 8 14 0 19-4 2-8 0-11.7-2.5q-0.8-0.7-1.3-1.6-0.6-0.8-1-1.8-0.4-0.9-0.6-1.9-0.2-1-0.2-2z"/>
			<path class="s1" d="m316 662.8q0.3 0.7 0.5 1.4 0.2 0.7 0.4 1.4 0.2 0.8 0.3 1.5 0.2 0.8 0.3 1.5 0.4 2.9 0.5 5.9l0.3 11.6c0.1 3.9 0.2 7.8 0.2 11.7l0.2 11.7c0.2 15.6 0.2 31.2 0.3 46.7 0.1 15.6 0.2 31.2 0 46.8-0.1 7.8-0.3 15.6-0.5 23.4-0.1 3.8-0.3 7.7-0.7 11.6q-0.1 1.5-0.3 3-0.2 1.4-0.4 2.9-0.2 1.5-0.5 2.9-0.3 1.5-0.6 2.9-0.3-1.4-0.6-2.9-0.2-1.4-0.5-2.9-0.2-1.5-0.3-2.9-0.2-1.5-0.3-3c-0.4-3.9-0.6-7.8-0.7-11.6-0.2-7.8-0.5-15.6-0.5-23.4-0.2-15.6 0-31.2 0-46.8 0-15.5 0-31.1 0.1-46.7l0.2-11.7 0.3-11.7 0.4-11.6q0-3 0.5-5.9 0.1-0.7 0.2-1.5 0.1-0.7 0.3-1.5 0.2-0.7 0.4-1.4 0.2-0.7 0.5-1.4z"/>
			<path fill-rule="evenodd" class="s1" d="m242.4 714.5q0.5 0.2 1.1 0.4 0.6 0.2 1.2 0.3 0.6 0.1 1.2 0.2 0.6 0.1 1.2 0.2 0.5 0.1 1.1 0.2 0.6 0 1.2 0.1 0.6 0 1.2 0l9.3 0.4c6.2 0.2 12.5 0.4 18.7 0.5 12.5 0.1 24.9 0.1 37.4 0.1 12.5 0 24.9 0.2 37.4 0 6.2-0.1 12.4-0.3 18.7-0.5 3.1-0.1 6.2-0.3 9.3-0.7q1.2-0.1 2.4-0.3 1.2-0.1 2.3-0.4 1.2-0.2 2.4-0.4 1.1-0.3 2.3-0.6-4.6-1.3-9.4-1.8c-3.1-0.4-6.2-0.6-9.3-0.7-6.3-0.2-12.5-0.4-18.7-0.5-12.5-0.2-24.9 0-37.4 0-12.5 0-24.9 0.1-37.4 0.3l-18.7 0.4-9.3 0.3q-0.6 0-1.2 0.1-0.6 0-1.2 0.1-0.6 0-1.1 0.1-0.6 0.1-1.2 0.2-0.6 0.1-1.2 0.3-0.6 0.1-1.2 0.3-0.6 0.2-1.2 0.4-0.5 0.2-1.1 0.5 0.6 0.3 1.2 0.5zm16.8 31.5q0.4 0.2 0.8 0.5 0.5 0.2 0.9 0.4 0.5 0.2 0.9 0.3 0.5 0.2 0.9 0.3 0.5 0.2 0.9 0.3 0.4 0.1 0.9 0.1 0.5 0.1 0.9 0.2 3.6 0.5 7.2 0.9c4.9 0.5 9.7 0.9 14.5 1.1 4.9 0.1 9.7 0.2 14.6 0.3 4.8 0.1 9.6-0.1 14.4-0.1 9.7-0.2 19.3-0.1 28.9-0.5 4.8-0.2 9.7-0.4 14.5-0.8q0.9-0.1 1.8-0.1 0.9-0.1 1.8-0.2 0.9-0.1 1.8-0.3 0.9-0.1 1.8-0.3 0.9-0.1 1.8-0.3 0.9-0.2 1.8-0.5 0.9-0.2 1.8-0.5 0.9-0.3 1.7-0.7-3.5-1.1-7.2-1.5-3.6-0.4-7.3-0.5c-4.8-0.1-9.6-0.2-14.4-0.2-9.6 0-19.2 0.1-28.9 0.4-9.6 0.3-19.1 0.2-28.7 0.2q-7.2 0-14.4-0.2-3.5 0-7.1-0.2-0.5 0-0.9 0-0.5 0-0.9 0-0.5 0-0.9 0.1-0.5 0-0.9 0.1-0.5 0-1 0.1-0.5 0.1-1 0.3-0.4 0.1-0.9 0.3-0.4 0.2-0.9 0.4 0.4 0.3 0.8 0.6zm-3.4 35.4q0.5 0.2 1 0.4 0.5 0.2 0.9 0.3 0.5 0.2 1 0.3 0.5 0.1 1 0.2 0.5 0 0.9 0.1 0.5 0.1 1 0.1 0.5 0 1 0.1l7.6 0.3q7.6 0.4 15.3 0.5c10.2 0.2 20.3 0.2 30.5 0.3 10.2 0 20.4 0.2 30.6 0 5.1-0.1 10.1-0.3 15.2-0.6q1 0 1.9 0 1-0.1 2-0.2 0.9-0.1 1.9-0.2 0.9-0.1 1.9-0.2 0.9-0.2 1.9-0.3 1-0.2 1.9-0.4 1-0.3 1.9-0.5 1-0.3 1.9-0.6-3.7-1.3-7.7-1.8-3.8-0.5-7.6-0.7c-5.1-0.2-10.2-0.4-15.3-0.5-10.1-0.2-20.3 0-30.5 0-10.2 0-20.3 0-30.5 0.1q-7.7 0.2-15.3 0.5l-7.6 0.3q-0.5 0-1 0-0.5 0.1-1 0.1-0.4 0.1-0.9 0.2-0.5 0.1-0.9 0.2-0.6 0.1-1 0.2-0.5 0.2-1 0.4-0.5 0.2-1 0.4-0.4 0.2-0.9 0.5 0.5 0.2 0.9 0.5zm238-44c0.2-37.2-1.2-70.1-7.7-95.4-10.1-25.4-28.2-40.5-60.1-40.5l22.8 134.5c0 0 22.5 10.2 45 1.4z"/>
			<path fill-rule="evenodd" class="s3" d="m502.4 726.8q-0.4 0.3-0.9 0.7-0.4 0.3-0.9 0.6-0.4 0.3-0.9 0.6-0.5 0.3-1 0.5"/>
			<path class="s1" d="m142.1 640.9c-6.8 25.6-8 59.1-7.7 97 19.9 8.5 50.4-2.2 50.4-2.2l17.3-132.2c-30.8 0-49.3 13.9-60 37.4z"/>
			<path class="s5" d="m429.8 589.7h-54.3v0.1q0.1 1.7 0 3.4-0.1 1.7-0.3 3.4-0.2 1.6-0.5 3.3-0.2 1.7-0.6 3.3-0.2 0.8-0.4 1.6-0.2 0.8-0.4 1.6-0.2 0.8-0.4 1.6-0.3 0.8-0.5 1.5-0.9 2.4-1.9 4.6-1.1 2.2-2.3 4.3-1.3 2.2-2.7 4.1-1.5 2-3.1 3.9-0.6 0.6-1.1 1.1-0.5 0.6-1.1 1.2-0.6 0.5-1.2 1-0.5 0.6-1.1 1.1c-25.2 18.2-65.2 19.2-89.5-0.6q-1-0.8-1.9-1.7-1-0.9-1.9-1.9-0.8-1-1.7-1.9-0.8-1-1.6-2.1-1.7-2.1-3.1-4.4-1.4-2.4-2.5-4.8-1.2-2.4-2-5-0.9-2.6-1.5-5.2-0.2-0.8-0.4-1.6-0.1-0.8-0.2-1.7-0.2-0.8-0.3-1.6-0.1-0.8-0.2-1.7-0.1-0.8-0.2-1.7 0-0.8-0.1-1.7 0-0.8 0-1.7-0.1-0.8-0.1-1.7v-0.1h-54.2c-1.7 0-3.4 0.4-5 1-1.7 0.7-3.1 1.7-4.4 2.9-1.2 1.2-2.2 2.7-2.8 4.3-0.7 1.6-1 3.4-1 5.1v284.7q0 1.3 0.2 2.6 0.3 1.3 0.8 2.5 0.5 1.2 1.2 2.3 0.7 1.1 1.6 2 1 0.9 2 1.7 1.1 0.7 2.3 1.2 1.3 0.5 2.5 0.7 1.3 0.3 2.6 0.3h239c1.7 0 3.4-0.3 5-1 1.7-0.7 3.1-1.7 4.4-2.9 1.2-1.2 2.2-2.7 2.8-4.3 0.7-1.6 1-3.3 1-5.1v-278.1c0-12.2-5.8-19.9-18.9-19.9z"/>
			<path class="s5" d="m426 589.7c63.5 0 73.4 56 73.9 133.2-18.6 11.6-48.9 1.3-48.9 1.3z"/>
			<path class="s6" d="m448.7 662.9l-22.7 38.1 11.4 130h11.6v-105.6l17.3 2.8c-5.7-72.1-17.6-65.3-17.6-65.3z"/>
			<path class="s5" d="m202.1 589.7c-61.8 0-75.8 53.8-76.8 127.7 19 19.8 58 4.6 58 4.6z"/>
			<path class="s6" d="m183.2 662.9v59.1l-17.3 4.3c5.7-70.1 17.3-63.4 17.3-63.4z"/>
			<path fill-rule="evenodd" class="s3" d="m183.2 722c0 0-41.2 13.2-61.8-1.6 0.6-76 13.9-130.7 80.7-130.7m223.9 0c67.4 0 78.4 56.3 78.9 133.8-26.2 12.4-53.9 0.7-53.9 0.7z"/>
			<path class="s6" d="m196.5 901h116.6c-109.1 0-100.9-231.2-129.8-231.2v217.9q0 1.3 0.2 2.6 0.3 1.3 0.8 2.5 0.5 1.2 1.2 2.3 0.7 1.1 1.6 2 1 0.9 2 1.7 1.1 0.7 2.3 1.2 1.3 0.5 2.5 0.7 1.3 0.3 2.6 0.3z"/>
			<path class="s4" d="m177.3 691.9c-0.2-3.7-0.2-7.4 0-11 0.2-3.7 0.5-7.4 0.9-11q0.3-2.8 0.6-5.6c0.3-1.8 0.5-3.6 0.9-5.5q0.2-1.4 0.6-2.8 0.4-1.4 0.8-2.8 0.5-1.4 1-2.7 0.5-1.4 1.2-2.7 0.6 1.3 1.1 2.7 0.6 1.3 1 2.7 0.5 1.4 0.8 2.8 0.4 1.4 0.6 2.8c0.4 1.9 0.7 3.7 0.9 5.5q0.3 2.8 0.7 5.6 0.5 5.5 0.8 11c0.2 3.6 0.3 7.3 0.1 11z"/>
			<path fill-rule="evenodd" class="s2" d="m448.7 701v8c0.3 34 0.3 69 0 102.8v75.9c0 1.7-0.3 3.5-1 5.1-0.6 1.6-1.6 3.1-2.8 4.3-1.3 1.2-2.7 2.2-4.3 2.9-1.7 0.7-3.4 1-5.1 1h-239c-1.7 0-3.4-0.3-5-1-1.7-0.7-3.1-1.7-4.4-2.9-1.2-1.2-2.2-2.7-2.8-4.3-0.7-1.6-1-3.3-1-5.1v-65.8c-0.3-34.9-0.3-69.9 0-105.3v-24.7"/>
			<path class="s4" d="m442.7 701c-0.1-4.2-0.1-8.4 0.1-12.5 0.2-4.2 0.5-8.4 0.9-12.6q0.2-3.1 0.6-6.2c0.2-2.1 0.5-4.2 0.9-6.3q0.2-1.6 0.6-3.2 0.3-1.6 0.8-3.2 0.4-1.5 1-3.1 0.5-1.5 1.1-3 0.7 1.5 1.2 3 0.6 1.6 1 3.1 0.5 1.6 0.8 3.2 0.4 1.6 0.6 3.2c0.4 2.1 0.6 4.2 0.9 6.3q0.3 3.1 0.6 6.2c0.4 4.2 0.7 8.4 0.9 12.6 0.1 4.1 0.2 8.3 0 12.5z"/>
			<path fill-rule="evenodd" class="s2" d="m375.6 589.8q0 1.7-0.1 3.4-0.1 1.7-0.3 3.4-0.2 1.6-0.5 3.3-0.2 1.7-0.6 3.3-0.2 0.8-0.4 1.6-0.2 0.8-0.4 1.6-0.2 0.8-0.4 1.6-0.3 0.8-0.5 1.5-0.9 2.4-1.9 4.6-1.1 2.2-2.3 4.3-1.3 2.2-2.7 4.1-1.5 2-3.1 3.9-0.6 0.6-1.1 1.1-0.5 0.6-1.1 1.2-0.6 0.5-1.2 1-0.5 0.6-1.1 1.1c-25.2 18.2-65.2 19.2-89.5-0.6q-1-0.8-1.9-1.7-1-0.9-1.9-1.9-0.8-1-1.7-1.9-0.8-1-1.6-2.1-1.7-2.1-3.1-4.4-1.4-2.4-2.5-4.8-1.2-2.4-2-5-0.9-2.6-1.5-5.2-0.2-0.8-0.4-1.6-0.1-0.8-0.2-1.7-0.2-0.8-0.3-1.6-0.1-0.8-0.2-1.7-0.1-0.8-0.2-1.7 0-0.8-0.1-1.7 0-0.8 0-1.7-0.1-0.8-0.1-1.7m-54.2 0l233.3-0.1z"/>
			<path class="s4" d="m319.4 659.4q-2.3 0.4-4.6 0.7-2.2 0.3-4.6 0.5-2.3 0.1-4.6 0.1-2.3 0-4.6-0.2-2.3-0.2-4.6-0.5-2.3-0.3-4.6-0.8-2.3-0.5-4.5-1.1-2.3-0.6-4.5-1.4-2.2-0.7-4.3-1.7-2.2-0.9-4.3-2-2-1-4-2.3-2-1.2-3.9-2.6l-1.8-1.4q-1-0.7-1.8-1.5-0.5-0.4-0.9-0.8-0.4-0.4-0.9-0.8-0.4-0.4-0.8-0.9-0.4-0.4-0.8-0.8-0.7-0.9-1.5-1.8-0.7-0.9-1.4-1.8-0.6-1-1.3-1.9-0.6-1-1.1-2 0.8 0.8 1.6 1.6 0.8 0.7 1.6 1.5 0.9 0.8 1.7 1.5 0.9 0.7 1.8 1.5 0.9 0.7 1.7 1.4c0.6 0.4 1.3 0.8 1.9 1.2q0.9 0.6 1.8 1.2l1.9 1.2q2 1.1 3.9 2.2 2 1 4 1.9 2 1 4.1 1.8 2 0.8 4.1 1.6 2.1 0.7 4.3 1.3 2.1 0.7 4.3 1.2 2.1 0.6 4.3 1.1 2.2 0.4 4.4 0.8 2.2 0.4 4.5 0.7 2.2 0.3 4.5 0.5 2.2 0.3 4.5 0.5 2.2 0.2 4.5 0.3z"/>
			<path fill-rule="evenodd" class="s3" d="m123.8 723.5q0.5 0.4 0.9 0.8 0.4 0.3 0.9 0.7 0.5 0.3 0.9 0.6 0.5 0.4 1 0.7"/>
			<path class="s4" d="m490.7 713.7q-0.8 0.5-1.6 0.8-0.8 0.4-1.7 0.8-0.8 0.3-1.7 0.5-0.9 0.3-1.8 0.4-0.8 0.2-1.7 0.3-0.9 0.1-1.8 0.2-0.9 0.1-1.8 0.1-1 0.1-1.9 0.1-0.9-0.1-1.8-0.1-0.9-0.1-1.8-0.2-0.9-0.1-1.8-0.2-0.9-0.2-1.7-0.3c-1.2-0.2-2.4-0.6-3.5-0.9-1.2-0.3-2.3-0.8-3.4-1.2 1.2 0 2.4 0.1 3.6 0.2l3.5 0.3c1.1 0 2.3 0.2 3.5 0.2 1.1 0 2.3 0.1 3.5 0.2q3.5 0 7-0.2 0.8-0.1 1.7-0.2 0.9-0.1 1.7-0.2 0.9-0.1 1.8-0.3 0.8-0.1 1.7-0.3z"/>
			<path fill-rule="evenodd" class="s7" d="m354.9 771.3c4 17.3 2.3 31-5.4 35.4q-0.7 0.4-1.4 0.7-0.8 0.3-1.6 0.5-0.7 0.2-1.5 0.3-0.8 0.1-1.7 0.1c-7.5 0-17.3-5.3-27.2-14.5-9.9 9.2-19.7 14.6-27.2 14.6q-0.8 0-1.6-0.1-0.8-0.1-1.6-0.3-0.8-0.2-1.5-0.5-0.8-0.3-1.5-0.6c-7.7-4.5-9.4-18.3-5.5-35.6-17-5.2-28.1-13.6-28.1-22.5 0-8.8 11-17.2 28-22.4-3.9-17.3-2.2-31.1 5.4-35.5 1.8-1 3-1.4 6.2-1.5 6.3-0.2 17.3 5.3 27.3 14.5 9.9-9.3 19.2-14.5 27.2-14.6q0.8-0.1 1.6 0 0.8 0 1.6 0.2 0.7 0.2 1.5 0.5 0.7 0.4 1.4 0.8c7.7 4.4 9.4 18.2 5.5 35.6 17 5.2 28.1 13.6 28.1 22.4 0 8.9-11.1 17.3-28 22.5zm-34.6-63.2q1.5 1.6 3 3.2 1.5 1.7 2.9 3.4 1.4 1.7 2.8 3.4 1.3 1.8 2.6 3.6 2.2 0.2 4.4 0.5 2.2 0.3 4.3 0.7 2.2 0.4 4.3 0.8 2.2 0.5 4.3 1c0.6-2.7 1.1-5.4 1.4-8 1.3-10.4-0.3-18.5-4-20.6q-0.4-0.2-0.8-0.4-0.4-0.1-0.7-0.2-0.4-0.1-0.8-0.1-0.4-0.1-0.8-0.1c-5.7 0.1-14 4.6-22.9 12.8zm-32 48.2c-1.5 3.6-2.7 7.2-3.7 10.7q5.4 1.3 11.2 2.2-2-3.1-4-6.4-1.9-3.3-3.5-6.5zm-3-22.9q0.5 1.4 1 2.7 0.4 1.4 0.9 2.7 0.5 1.4 1.1 2.7c1.1-2.2 2.3-4.3 3.5-6.5 1.3-2.3 2.6-4.4 3.9-6.5-3.9 0.6-7.6 1.3-11.2 2.1q0.4 1.4 0.8 2.8zm11.8 26.4q3.2 5.5 6.6 10.3 6.1 0.5 12.3 0.5 6.2 0 12.3-0.5c2.3-3.2 4.5-6.8 6.6-10.4 2-3.6 3.9-7.2 5.6-10.9-1.6-3.6-3.5-7.2-5.6-10.8q-3.2-5.5-6.6-10.4-6.1-0.5-12.3-0.5-6.2 0-12.3 0.5c-2.3 3.3-4.5 6.9-6.6 10.4-2 3.6-4 7.3-5.6 10.9 1.7 3.7 3.5 7.2 5.6 10.9zm39.1 9.4c3.9-0.6 7.7-1.3 11.3-2.2q-0.4-1.4-0.9-2.7-0.4-1.4-0.9-2.8-0.5-1.3-1-2.7-0.5-1.3-1-2.7c-1.1 2.2-2.3 4.4-3.5 6.6-1.3 2.2-2.6 4.4-4 6.5zm3.9-34.3c1.3 2.2 2.5 4.3 3.6 6.5 1.4-3.6 2.7-7.2 3.7-10.8q-5.3-1.3-11.2-2.1c1.4 2.1 2.7 4.2 4 6.4zm-18.5-16q-0.9-1.1-1.8-2.2-1-1.1-2-2.2-0.9-1-2-2.1-0.9 1.1-1.9 2.1-1 1.1-1.9 2.2-1 1.1-1.9 2.2-0.9 1.1-1.7 2.3c2.4-0.2 5-0.2 7.5-0.2 2.5 0 5.1 0.1 7.5 0.2q-0.9-1.2-1.8-2.3zm-36.1-22.7c-3.7 2.1-5.3 10.2-4 20.7 0.4 2.5 0.8 5.1 1.4 7.9q2.2-0.6 4.3-1 2.2-0.5 4.4-0.8 2.1-0.4 4.3-0.7 2.2-0.3 4.4-0.5 1.3-1.8 2.6-3.6 1.4-1.7 2.8-3.4 1.4-1.7 2.9-3.4 1.4-1.6 2.9-3.2c-8.9-8.3-17.2-12.8-22.9-12.8q-0.4 0-0.8 0.1-0.4 0-0.8 0.1-0.4 0.1-0.8 0.2-0.3 0.2-0.7 0.4zm-6.9 69.2q0.6-2.1 1.3-4.2 0.7-2.1 1.5-4.2 0.7-2.1 1.6-4.1 0.8-2.1 1.7-4.1-0.9-2-1.8-4-0.8-2.1-1.6-4.2-0.7-2.1-1.4-4.2-0.7-2.1-1.4-4.2c-2.6 0.9-5.2 1.8-7.5 2.8-9.7 4.1-15.9 9.5-15.9 13.8 0 4.2 6.2 9.6 15.9 13.8q3.6 1.5 7.6 2.7zm10.1 37c5.7 0 14.1-4.6 22.9-12.8q-1.5-1.6-3-3.3-1.4-1.6-2.8-3.3-1.5-1.7-2.8-3.5-1.4-1.7-2.7-3.5-2.2-0.3-4.4-0.6-2.1-0.3-4.3-0.6-2.2-0.4-4.3-0.9-2.2-0.4-4.3-0.9c-0.6 2.7-1.1 5.4-1.4 8-1.2 10.4 0.4 18.5 4.1 20.6q0.3 0.2 0.7 0.3 0.4 0.2 0.8 0.3 0.4 0 0.8 0.1 0.3 0 0.7 0zm27.3-17.1q1-1 1.9-2.1 1-1 1.9-2.1 1-1.1 1.9-2.3 0.9-1.1 1.8-2.2c-2.5 0.1-5.1 0.2-7.6 0.2-2.5 0-5-0.1-7.5-0.2q0.9 1.1 1.8 2.2 0.9 1.1 1.9 2.2 0.9 1.1 1.9 2.2 1 1.1 2 2.1zm30.4 16.3c3.6-2.2 5.2-10.3 3.9-20.7q-0.1-1-0.2-2-0.2-1-0.4-2-0.1-1-0.3-2-0.2-1-0.5-2-2.1 0.6-4.3 1-2.1 0.5-4.3 0.8-2.2 0.4-4.3 0.7-2.2 0.3-4.4 0.5-1.3 1.8-2.7 3.6-1.3 1.7-2.7 3.4-1.4 1.7-2.9 3.4-1.5 1.6-3 3.2c8.9 8.2 17.3 12.7 22.9 12.7q0.4 0.1 0.8 0 0.4 0 0.8-0.1 0.4-0.1 0.8-0.2 0.4-0.2 0.8-0.4zm14.4-38.8c9.7-4.1 15.9-9.6 15.9-13.9 0-4.2-6.2-9.6-15.9-13.8q-3.6-1.5-7.7-2.7-0.6 2.1-1.2 4.2-0.7 2.1-1.5 4.1-0.7 2.1-1.5 4.1-0.9 2.1-1.8 4.1 1 2 1.8 4.1 0.8 2 1.6 4.1 0.8 2.1 1.5 4.2 0.7 2.1 1.3 4.2c2.6-0.9 5.2-1.8 7.5-2.8z"/>
			<path class="s8" d="m316 761.3c6.9 0 12.4-5.6 12.4-12.5 0-6.9-5.5-12.4-12.4-12.4-6.9 0-12.5 5.5-12.5 12.4 0 6.9 5.6 12.5 12.5 12.5z"/>
			<path fill-rule="evenodd" class="s9" d="m354.9 771.3c4 17.3 2.3 31-5.4 35.4q-0.7 0.4-1.4 0.7-0.8 0.3-1.6 0.5-0.7 0.2-1.5 0.3-0.8 0.1-1.7 0.1c-7.5 0-17.3-5.3-27.2-14.5-9.9 9.2-19.7 14.6-27.2 14.6q-0.8 0-1.6-0.1-0.8-0.1-1.6-0.3-0.8-0.2-1.5-0.5-0.8-0.3-1.5-0.6c-7.7-4.5-9.4-18.3-5.5-35.6-17-5.2-28.1-13.6-28.1-22.5 0-8.8 11-17.2 28-22.4-3.9-17.3-2.2-31.1 5.4-35.5 1.8-1 3-1.4 6.2-1.5 6.3-0.2 17.3 5.3 27.3 14.5 9.9-9.3 19.2-14.5 27.2-14.6q0.8-0.1 1.6 0 0.8 0 1.6 0.2 0.7 0.2 1.5 0.5 0.7 0.4 1.4 0.8c7.7 4.4 9.4 18.2 5.5 35.6 17 5.2 28.1 13.6 28.1 22.4 0 8.9-11.1 17.3-28 22.5zm-34.6-63.2q1.5 1.6 3 3.2 1.5 1.7 2.9 3.4 1.4 1.7 2.8 3.4 1.3 1.8 2.6 3.6 2.2 0.2 4.4 0.5 2.2 0.3 4.3 0.7 2.2 0.4 4.3 0.8 2.2 0.5 4.3 1c0.6-2.7 1.1-5.4 1.4-8 1.3-10.4-0.3-18.5-4-20.6q-0.4-0.2-0.8-0.4-0.4-0.1-0.7-0.2-0.4-0.1-0.8-0.1-0.4-0.1-0.8-0.1c-5.7 0.1-14 4.6-22.9 12.8zm-32 48.2c-1.5 3.6-2.7 7.2-3.7 10.7q5.4 1.3 11.2 2.2-2-3.1-4-6.4-1.9-3.3-3.5-6.5zm-3-22.9q0.5 1.4 1 2.7 0.4 1.4 0.9 2.7 0.5 1.4 1.1 2.7c1.1-2.2 2.3-4.3 3.5-6.5 1.3-2.3 2.6-4.4 3.9-6.5-3.9 0.6-7.6 1.3-11.2 2.1q0.4 1.4 0.8 2.8zm11.8 26.4q3.2 5.5 6.6 10.3 6.1 0.5 12.3 0.5 6.2 0 12.3-0.5c2.3-3.2 4.5-6.8 6.6-10.4 2-3.6 3.9-7.2 5.6-10.9-1.6-3.6-3.5-7.2-5.6-10.8q-3.2-5.5-6.6-10.4-6.1-0.5-12.3-0.5-6.2 0-12.3 0.5c-2.3 3.3-4.5 6.9-6.6 10.4-2 3.6-4 7.3-5.6 10.9 1.7 3.7 3.5 7.2 5.6 10.9zm39.1 9.4c3.9-0.6 7.7-1.3 11.3-2.2q-0.4-1.4-0.9-2.7-0.4-1.4-0.9-2.8-0.5-1.3-1-2.7-0.5-1.3-1-2.7c-1.1 2.2-2.3 4.4-3.5 6.6-1.3 2.2-2.6 4.4-4 6.5zm3.9-34.3c1.3 2.2 2.5 4.3 3.6 6.5 1.4-3.6 2.7-7.2 3.7-10.8q-5.3-1.3-11.2-2.1c1.4 2.1 2.7 4.2 4 6.4zm-18.5-16q-0.9-1.1-1.8-2.2-1-1.1-2-2.2-0.9-1-2-2.1-0.9 1.1-1.9 2.1-1 1.1-1.9 2.2-1 1.1-1.9 2.2-0.9 1.1-1.7 2.3c2.4-0.2 5-0.2 7.5-0.2 2.5 0 5.1 0.1 7.5 0.2q-0.9-1.2-1.8-2.3zm-36.1-22.7c-3.7 2.1-5.3 10.2-4 20.7 0.4 2.5 0.8 5.1 1.4 7.9q2.2-0.6 4.3-1 2.2-0.5 4.4-0.8 2.1-0.4 4.3-0.7 2.2-0.3 4.4-0.5 1.3-1.8 2.6-3.6 1.4-1.7 2.8-3.4 1.4-1.7 2.9-3.4 1.4-1.6 2.9-3.2c-8.9-8.3-17.2-12.8-22.9-12.8q-0.4 0-0.8 0.1-0.4 0-0.8 0.1-0.4 0.1-0.8 0.2-0.3 0.2-0.7 0.4zm-6.9 69.2q0.6-2.1 1.3-4.2 0.7-2.1 1.5-4.2 0.7-2.1 1.6-4.1 0.8-2.1 1.7-4.1-0.9-2-1.8-4-0.8-2.1-1.6-4.2-0.7-2.1-1.4-4.2-0.7-2.1-1.4-4.2c-2.6 0.9-5.2 1.8-7.5 2.8-9.7 4.1-15.9 9.5-15.9 13.8 0 4.2 6.2 9.6 15.9 13.8q3.6 1.5 7.6 2.7zm10.1 37c5.7 0 14.1-4.6 22.9-12.8q-1.5-1.6-3-3.3-1.4-1.6-2.8-3.3-1.5-1.7-2.8-3.5-1.4-1.7-2.7-3.5-2.2-0.3-4.4-0.6-2.1-0.3-4.3-0.6-2.2-0.4-4.3-0.9-2.2-0.4-4.3-0.9c-0.6 2.7-1.1 5.4-1.4 8-1.2 10.4 0.4 18.5 4.1 20.6q0.3 0.2 0.7 0.3 0.4 0.2 0.8 0.3 0.4 0 0.8 0.1 0.3 0 0.7 0zm27.3-17.1q1-1 1.9-2.1 1-1 1.9-2.1 1-1.1 1.9-2.3 0.9-1.1 1.8-2.2c-2.5 0.1-5.1 0.2-7.6 0.2-2.5 0-5-0.1-7.5-0.2q0.9 1.1 1.8 2.2 0.9 1.1 1.9 2.2 0.9 1.1 1.9 2.2 1 1.1 2 2.1zm30.4 16.3c3.6-2.2 5.2-10.3 3.9-20.7q-0.1-1-0.2-2-0.2-1-0.4-2-0.1-1-0.3-2-0.2-1-0.5-2-2.1 0.6-4.3 1-2.1 0.5-4.3 0.8-2.2 0.4-4.3 0.7-2.2 0.3-4.4 0.5-1.3 1.8-2.7 3.6-1.3 1.7-2.7 3.4-1.4 1.7-2.9 3.4-1.5 1.6-3 3.2c8.9 8.2 17.3 12.7 22.9 12.7q0.4 0.1 0.8 0 0.4 0 0.8-0.1 0.4-0.1 0.8-0.2 0.4-0.2 0.8-0.4zm14.4-38.8c9.7-4.1 15.9-9.6 15.9-13.9 0-4.2-6.2-9.6-15.9-13.8q-3.6-1.5-7.7-2.7-0.6 2.1-1.2 4.2-0.7 2.1-1.5 4.1-0.7 2.1-1.5 4.1-0.9 2.1-1.8 4.1 1 2 1.8 4.1 0.8 2 1.6 4.1 0.8 2.1 1.5 4.2 0.7 2.1 1.3 4.2c2.6-0.9 5.2-1.8 7.5-2.8z"/>
			<path class="s9" d="m316 761.3c6.9 0 12.4-5.6 12.4-12.5 0-6.9-5.5-12.4-12.4-12.4-6.9 0-12.5 5.5-12.5 12.4 0 6.9 5.6 12.5 12.5 12.5z"/>
			<path class="s4" d="m157.1 421c11.5 0 20.9-9.3 20.9-20.9 0-11.6-9.4-21-20.9-21-11.6 0-21 9.4-21 21 0 11.6 9.4 20.9 21 20.9z"/>
			<path fill-rule="evenodd" class="s4" d="m156.9 421q0.8 0 1.6 0 0.8-0.1 1.5-0.1 0.8-0.1 1.6-0.2 0.8-0.1 1.5-0.2 0.8-0.2 1.6-0.3 0.7-0.2 1.5-0.3 0.7-0.2 1.5-0.4 0.7-0.2 1.4-0.4 0.8-0.2 1.5-0.4 0.7-0.3 1.5-0.5 0.7-0.3 1.4-0.5 0.7-0.3 1.4-0.6 0.7-0.3 1.4-0.7 0.7-0.3 1.4-0.7 0.6-0.4 1.3-0.8 0.6-0.5 1.2-0.9c-2.1 0.1-4 0.4-6 0.8q-2.9 0.5-5.8 1c-1.9 0.3-3.9 0.5-5.8 0.7-1.9 0.2-3.9 0.4-5.7 0.5zm320.9 0.1c11.6 0 21-9.4 21-21 0-11.6-9.4-21-21-21-11.6 0-21 9.4-21 21 0 11.6 9.4 21 21 21z"/>
			<path class="s4" d="m477.8 417c1.8-0.1 3.8-0.3 5.7-0.5 1.9-0.2 3.8-0.4 5.8-0.7q2.9-0.5 5.8-1c1.9-0.4 3.9-0.7 6-0.8q-0.6 0.4-1.3 0.9-0.6 0.4-1.3 0.8-0.6 0.4-1.3 0.7-0.7 0.4-1.4 0.7-0.7 0.3-1.5 0.6-0.7 0.2-1.4 0.5-0.7 0.2-1.4 0.5-0.8 0.2-1.5 0.4-0.7 0.2-1.5 0.4-0.7 0.2-1.5 0.4-0.7 0.1-1.5 0.3-0.8 0.1-1.5 0.2-3.1 0.6-6.3 0.6zm-218.6 35.9c0-18.9 113.7-16.1 113.7 0 0 15-6.1 29.3-16.7 39.9-10.7 10.6-25.1 16.6-40.1 16.6-15 0-29.5-6-40.1-16.6-10.7-10.6-16.7-24.9-16.8-39.9z"/>
			<path class="s10" d="m311 474c-16.9-1-31.7 6.8-36.6 18.2 4 4.3 8.7 7.9 13.9 10.8 5.2 2.8 10.8 4.9 16.6 6 5.8 1.1 11.8 1.3 17.6 0.6 5.9-0.7 11.6-2.4 17-4.8q0.8-0.4 1.7-0.9 0.8-0.4 1.6-0.8 0.8-0.5 1.6-0.9 0.8-0.5 1.6-1c-0.9-14.1-15.9-26-35-27.2z"/>
			<path fill-rule="evenodd" class="s11" d="m259.1 452.9c0-18.9 113.8-16.1 113.8 0-0.1 15-6.2 29.4-16.8 39.9-10.7 10.6-25.1 16.6-40.1 16.6-15 0-29.4-6-40.1-16.6-10.6-10.5-16.7-24.9-16.8-39.9z"/>
			<path class="s4" d="m294.1 463.5c0.5-0.2 0.6-0.2 0.9-0.3l0.8-0.1c0.5-0.1 1-0.1 1.4-0.2q1.5-0.1 2.9-0.1 0.8 0 1.5 0.1 0.7 0.1 1.5 0.2 0.7 0.1 1.4 0.2 0.7 0.2 1.4 0.3 1.5 0.4 2.9 1 1.4 0.6 2.7 1.3 1.4 0.8 2.5 1.8 1.2 0.9 2.3 2 1 1.1 1.8 2.3 0.8 1.2 1.4 2.5 0.7 1.2 1.1 2.6 0.5 1.4 0.8 2.8c0.6 3.5 0.1 7.1-1.4 10.4-2.1-3-3.7-5.6-5.3-7.8q-0.3-0.4-0.6-0.8-0.3-0.4-0.6-0.8-0.3-0.3-0.6-0.7-0.3-0.4-0.7-0.7-0.3-0.3-0.6-0.6-0.3-0.3-0.7-0.6-0.3-0.2-0.6-0.5-0.4-0.2-0.8-0.5-0.7-0.4-1.4-0.7-0.7-0.4-1.5-0.6-0.8-0.3-1.6-0.5-0.8-0.2-1.6-0.3-0.4 0-0.8-0.1-0.5 0-0.9 0-0.4-0.1-0.8-0.1-0.5 0-0.9 0-0.9 0-1.8 0.1h-0.8-0.6z"/>
			<path class="s12" d="m321.9 75.3q-5.3 0.3-10.6 0.8-5.4 0.4-10.7 1.1-5.3 0.6-10.6 1.4-5.3 0.7-10.5 1.7c-3.5 0.6-7 1.4-10.5 2-3.5 0.6-6.9 1.6-10.3 2.4l-10.3 2.7c-3.4 1-6.8 2.1-10.2 3.1q-5 1.7-10 3.5-5 1.8-9.9 3.7-5 2-9.8 4.1-4.9 2.2-9.7 4.5-4.8 2.3-9.5 4.8-4.8 2.5-9.4 5.1-4.7 2.6-9.3 5.4-4.5 2.8-9 5.7 4-3.7 8.2-7.1 4.2-3.4 8.6-6.5 4.4-3.2 8.9-6.1 4.6-2.8 9.3-5.5 4.8-2.6 9.7-5 4.8-2.4 9.8-4.6 5-2.2 10.1-4.1 5-1.9 10.2-3.6c3.5-1 6.9-2 10.4-3q5.3-1.4 10.6-2.6c3.5-0.8 7.1-1.4 10.6-2 3.6-0.6 7.2-1.1 10.8-1.5q5.3-0.7 10.7-1 5.4-0.4 10.8-0.4 5.4-0.1 10.8 0.2 5.5 0.2 10.8 0.8z"/>
			<path class="s4" d="m416.9 291.6q4.1-1.1 8.3-2 4.2-1 8.4-1.8 4.1-0.8 8.4-1.6 4.2-0.7 8.4-1.3l-2.7 0.4c13.2-1.8 26.6-2.3 39.8-0.5l-2.7-0.4c3.3 0.5 6.6 1 9.8 1.5l-2.6-0.4q3.7 0.5 7.4 1.1 3.7 0.7 7.4 1.4 3.7 0.8 7.4 1.7 3.6 0.9 7.3 1.9c5 1.4 11.1-1.7 12.3-7 0.3-1.3 0.4-2.6 0.2-3.9-0.2-1.3-0.6-2.5-1.2-3.7-0.7-1.1-1.6-2.1-2.6-2.9-1-0.8-2.2-1.4-3.4-1.8q-4.3-1.2-8.6-2.2-4.3-1-8.6-1.8-4.3-0.9-8.7-1.6-4.3-0.7-8.7-1.2l2.6 0.4q-4.1-0.8-8.3-1.2-4.1-0.5-8.3-0.8-4.2-0.2-8.4-0.2-4.2 0-8.4 0.2-4.2 0.3-8.3 0.7-4.2 0.4-8.3 1-4.2 0.6-8.3 1.3-4.1 0.7-8.2 1.6c-5.6 1.1-11.2 2.4-16.8 3.8-5 1.2-8.6 7.2-7 12.3 0.4 1.2 1 2.4 1.8 3.4 0.8 1.1 1.8 1.9 3 2.6 1.1 0.6 2.4 1 3.7 1.2 1.3 0.2 2.6 0.1 3.8-0.2zm-314.7 0q3.6-1 7.2-1.9 3.7-1 7.3-1.7 3.7-0.8 7.4-1.4 3.6-0.7 7.3-1.2l-2.6 0.4q6.4-0.9 12.8-1.3 6.4-0.4 12.9-0.4 6.4 0 12.9 0.5 6.4 0.4 12.8 1.3l-2.7-0.4q3.7 0.5 7.4 1.2 3.8 0.6 7.4 1.4 3.7 0.7 7.4 1.6 3.6 0.9 7.3 1.9c5 1.4 11.1-1.7 12.3-7 0.3-1.3 0.4-2.6 0.2-3.9-0.2-1.3-0.6-2.5-1.3-3.7-0.6-1.1-1.5-2.1-2.5-2.9-1-0.8-2.2-1.4-3.4-1.8q-5.5-1.5-10.9-2.7-5.5-1.3-11-2.2-5.6-1-11.2-1.7-5.5-0.7-11.1-1.1-9-0.6-18-0.4-9 0.2-18 1.2-8.9 0.9-17.8 2.7-8.8 1.7-17.5 4.2-0.9 0.3-1.8 0.7-0.8 0.5-1.6 1.1-0.8 0.5-1.4 1.3-0.7 0.7-1.2 1.5-0.5 0.9-0.8 1.8-0.3 1-0.4 2-0.1 1-0.1 2 0.1 1 0.3 1.9c1.7 5.1 6.9 8.6 12.3 7z"/>
			<path fill-rule="evenodd" class="s13" d="m475.2 488.8c-16.6 0-33.1-3.3-48.4-9.6-15.4-6.4-29.3-15.7-41.1-27.5-11.7-11.7-21.1-25.7-27.4-41-6.4-15.4-9.7-31.9-9.7-48.5q0-2.9 0.1-5.7c-21.8-8-43.9-7.9-67.3 0.3 0.1 1.8 0.1 3.6 0.1 5.4 0 8.3-0.8 16.6-2.4 24.7-1.7 8.1-4.1 16.1-7.3 23.7-3.1 7.7-7.1 15-11.7 21.9-4.6 6.9-9.9 13.3-15.7 19.2-5.9 5.9-12.3 11.1-19.2 15.7-6.9 4.6-14.2 8.6-21.9 11.7-7.6 3.2-15.6 5.6-23.7 7.3-8.1 1.6-16.4 2.4-24.7 2.4-24.5 0-43.3-12-62.7-24q-3.8-6.3-7.3-12.7-3.5-6.4-6.6-13.1-3.1-6.6-5.8-13.4-2.7-6.7-5.1-13.7c18.7 31.1 48.7 56.9 87.5 56.9 17.5 0 34.7-4.3 50.1-12.5 15.4-8.2 28.6-20.1 38.4-34.6 9.7-14.5 15.8-31.2 17.6-48.6 1.8-17.3-0.7-34.9-7.3-51.1h-197.6q-1.1 2.8-2.1 5.6-1 2.9-1.8 5.7-0.8 2.9-1.5 5.9-0.6 2.9-1.1 5.9-0.3-7-0.3-14.1 0-3.7 0.1-7.3 0.1-3.6 0.2-7.3 0.2-3.6 0.5-7.2 0.3-3.6 0.7-7.2h530.4q0.4 3.6 0.6 7.2 0.3 3.6 0.5 7.2 0.2 3.7 0.3 7.3 0.1 3.6 0.1 7.3c0 8.2-0.4 16.4-1.1 24.4q-0.2-4.3-0.9-8.6-0.6-4.2-1.5-8.4-1-4.2-2.3-8.3-1.3-4.1-2.9-8.1h-197.6q-1.9 4.8-3.4 9.7-1.5 5-2.5 10-1 5.1-1.4 10.2-0.5 5.2-0.5 10.3c0 14 2.8 27.9 8.1 40.8 5.4 12.9 13.2 24.7 23.1 34.6 9.9 9.9 21.7 17.7 34.6 23.1 12.9 5.4 26.8 8.1 40.8 8.1 42.3 0 74.9-29.7 92.1-65.4q-2.4 7.8-5.2 15.4-2.8 7.7-6.1 15.1-3.3 7.5-7.1 14.7-3.7 7.2-7.9 14.2c-20 13.3-40 26-65.8 26zm-123.1-156.2q0.4-1.8 0.9-3.6 0.4-1.7 1-3.5 0.5-1.8 1.1-3.5h-80.1q0.6 1.8 1.1 3.6 0.6 1.8 1.1 3.6 0.5 1.8 0.9 3.7 0.4 1.8 0.8 3.7c24.7-7.8 49-8 72.4-0.4q0.3-1.8 0.8-3.6z"/>
			<path class="s14" d="m49.6 300.8c0 0 0.4 32.3 0.4 50.2 0 64.4 40.5 116.6 104.9 116.6 9.8 0 19.6-1.2 29.1-3.6 9.5-2.5 18.6-6.1 27.2-10.9 8.6-4.7 16.5-10.5 23.7-17.2 7.1-6.8 13.4-14.4 18.6-22.7 5.3-8.2 9.4-17.2 12.4-26.5 3-9.3 4.8-19 5.4-28.8 0.6-9.8-0.1-19.6-1.9-29.2-1.9-9.7-5-19-9.2-27.9zm320.3 0c-6.3 13.3-10.1 27.7-11 42.4-1 14.7 0.8 29.5 5.3 43.5 4.5 14 11.6 27.1 21 38.4 9.4 11.4 20.8 20.9 33.7 28q6.5 3.6 13.3 6.3 6.8 2.7 13.9 4.6 7.2 1.8 14.5 2.7 7.3 0.9 14.6 0.9c64.4 0 107.6-52.2 107.6-116.6 0-18-2.3-50.2-2.3-50.2z"/>
			<path class="s15" d="m136 457.9l123.1-123.1q-1-2.3-2.2-4.5-1.1-2.3-2.4-4.4-1.2-2.2-2.6-4.3-1.4-2.1-2.8-4.1l-130.4 130.4q2 1.5 4.1 2.8 2.1 1.4 4.3 2.6 2.2 1.3 4.4 2.4 2.2 1.1 4.5 2.2z"/>
			<path fill-rule="evenodd" class="s16" d="m271.9 338.5c29.5-12 58.5-12.4 87 0"/>
			<path class="s12" d="m90.3 335.8c2 6.5-6 11.5-12 12.5-6 0-10-4-12-9-1-5 0-10 4-13 5-2 12-4 16.5 1.1q0.8 0.8 1.5 1.8 0.6 0.9 1.1 2 0.4 1.1 0.7 2.2 0.2 1.2 0.2 2.3zm10.7-3.8c-0.6 4.4-6.6 4.4-7.6 0.4 0-3 1-4 3.8-4.1q0.8 0 1.5 0.2 0.7 0.3 1.2 0.9 0.5 0.5 0.8 1.2 0.3 0.7 0.3 1.4z"/>
			<path class="s15" d="m461.2 449.9l106.3-106.3q-0.2-1.4-0.5-2.8-0.3-1.4-0.6-2.8-0.3-1.4-0.6-2.8-0.4-1.4-0.7-2.8l-115.1 115.1q1.4 0.4 2.8 0.7 1.4 0.4 2.8 0.7 1.4 0.3 2.8 0.5 1.4 0.3 2.8 0.5z"/>
			<path class="s12" d="m406.7 336.7c2 6.5-6 11.5-12 12.5-6 0-10-4-12-9-1-5 0-10 4-13 5-2 12-4 16.5 1.2q0.8 0.8 1.5 1.7 0.6 1 1.1 2.1 0.4 1.1 0.7 2.2 0.2 1.2 0.2 2.3zm10.7-3.8c-0.7 4.3-6.7 4.3-7.7 0.3 0-3 1-4 3.9-4.1q0.4 0 0.7 0.1 0.4 0.1 0.7 0.2 0.4 0.2 0.7 0.4 0.3 0.2 0.6 0.4 0.2 0.3 0.4 0.6 0.2 0.3 0.4 0.7 0.1 0.3 0.2 0.7 0.1 0.3 0.1 0.7z"/>
			<path fill-rule="evenodd" class="s16" d="m49.6 300.8c0 0-0.3 31.7 0.4 50.2 2.6 64.4 40.5 116.6 104.9 116.6 9.8 0 19.6-1.2 29.1-3.6 9.5-2.5 18.6-6.1 27.2-10.9 8.6-4.7 16.5-10.5 23.7-17.2 7.1-6.8 13.4-14.4 18.6-22.7 5.3-8.2 9.4-17.2 12.4-26.5 3-9.3 4.8-19 5.4-28.8 0.6-9.8-0.1-19.6-1.9-29.2-1.9-9.7-5-19-9.2-27.9zm320.3 0c-6.3 13.3-10.1 27.7-11 42.4-1 14.7 0.8 29.5 5.3 43.5 4.5 14 11.6 27.1 21 38.4 9.4 11.4 20.8 20.9 33.7 28q6.5 3.6 13.3 6.3 6.8 2.7 13.9 4.6 7.2 1.8 14.5 2.7 7.3 0.9 14.6 0.9c64.4 0 107.6-51.5 107.6-115.9 0-18-2.3-50.9-2.3-50.9zm-130.7 0h151.8"/>
		</g>
	</g>
</svg>